<?xml version="1.0" encoding="UTF-8"?>
<svg xmlns="http://www.w3.org/2000/svg" width="240" height="220" viewBox="0 0 240 220">
  <rect x="0" y="0" width="240" height="220" fill="#fff"/>
  <polygon points="212.00,110.00 166.00,189.67 74.00,189.67 28.00,110.00 74.00,30.33 166.00,30.33" fill="#fff" stroke="#111" stroke-width="2"/>
  <g clip-path="url(#clipHex)">
    
  <rect x="36" y="46" width="168" height="126" fill="#f8f8f8"/>
  <g stroke="#111" stroke-width="1.6" fill="#fff"><rect x="56" y="58" width="28" height="22"/>
<rect x="90" y="56" width="18" height="24"/>
<rect x="116" y="60" width="30" height="20"/>
<rect x="152" y="56" width="20" height="24"/>
<rect x="60" y="88" width="22" height="22"/>
<rect x="90" y="90" width="22" height="18"/>
<rect x="120" y="88" width="18" height="24"/>
<rect x="146" y="90" width="34" height="22"/>
<rect x="72" y="120" width="24" height="22"/>
<rect x="104" y="120" width="20" height="20"/>
<rect x="132" y="118" width="20" height="22"/>
<rect x="158" y="122" width="20" height="18"/></g>
  <g stroke="#444" stroke-width="1.2" fill="none"><path d="M 50 84 L 194 84"/>
<path d="M 44 110 L 200 110"/>
<path d="M 48 138 L 196 138"/></g>
  </g>
  <polygon points="212.00,110.00 166.00,189.67 74.00,189.67 28.00,110.00 74.00,30.33 166.00,30.33" fill="none" stroke="#111" stroke-width="2"/>
  <text x="120" y="208" font-family="Segoe UI, Arial, sans-serif" font-size="13" text-anchor="middle" fill="#111">City (Urban/Suburban) v3</text>
  <defs>
    <clipPath id="clipHex">
      <polygon points="212.00,110.00 166.00,189.67 74.00,189.67 28.00,110.00 74.00,30.33 166.00,30.33"/>
    </clipPath>
  </defs>
</svg>
