<?xml version="1.0" encoding="UTF-8"?>
<svg xmlns="http://www.w3.org/2000/svg" width="240" height="220" viewBox="0 0 240 220">
  <rect x="0" y="0" width="240" height="220" fill="#fff"/>
  <polygon points="212.00,110.00 166.00,189.67 74.00,189.67 28.00,110.00 74.00,30.33 166.00,30.33" fill="#fff" stroke="#111" stroke-width="2"/>
  <g clip-path="url(#clipHex)">
    
  <rect x="36" y="46" width="168" height="126" fill="#f8f8f8"/>
  <g stroke="#111" stroke-width="1.6" fill="#fff"><rect x="55" y="62" width="20" height="20"/>
<rect x="86" y="58" width="26" height="26"/>
<rect x="122" y="64" width="20" height="18"/>
<rect x="154" y="56" width="30" height="28"/>
<rect x="60" y="96" width="24" height="20"/>
<rect x="96" y="94" width="18" height="22"/>
<rect x="124" y="94" width="36" height="20"/>
<rect x="72" y="126" width="24" height="22"/>
<rect x="108" y="124" width="20" height="22"/>
<rect x="142" y="122" width="30" height="24"/></g>
  <g stroke="#444" stroke-width="1.2" fill="none"><path d="M 40 90 L 200 90"/>
<path d="M 44 118 L 198 118"/></g>
  </g>
  <polygon points="212.00,110.00 166.00,189.67 74.00,189.67 28.00,110.00 74.00,30.33 166.00,30.33" fill="none" stroke="#111" stroke-width="2"/>
  <text x="120" y="208" font-family="Segoe UI, Arial, sans-serif" font-size="13" text-anchor="middle" fill="#111">City (Urban/Suburban) v1</text>
  <defs>
    <clipPath id="clipHex">
      <polygon points="212.00,110.00 166.00,189.67 74.00,189.67 28.00,110.00 74.00,30.33 166.00,30.33"/>
    </clipPath>
  </defs>
</svg>
