<?xml version="1.0" encoding="UTF-8"?>
<svg xmlns="http://www.w3.org/2000/svg" width="240" height="220" viewBox="0 0 240 220">
  <rect x="0" y="0" width="240" height="220" fill="#fff"/>
  <polygon points="212.00,110.00 166.00,189.67 74.00,189.67 28.00,110.00 74.00,30.33 166.00,30.33" fill="#fff" stroke="#111" stroke-width="2"/>
  <g clip-path="url(#clipHex)">
    
  <rect x="30" y="45" width="180" height="130" fill="#fcfcfc"/>
  <g stroke="#444" stroke-width="1.2" fill="none"><path d="M 36 66 C 52 56, 72 52, 92 64 C 118 78, 142 56, 168 68 C 186 76, 198 64, 206 68"/>
<path d="M 36 90 C 52 80, 72 76, 92 88 C 118 102, 142 80, 168 92 C 186 100, 198 88, 206 92"/>
<path d="M 36 118 C 52 108, 72 104, 92 116 C 118 130, 142 108, 168 120 C 186 128, 198 116, 206 120"/>
<path d="M 36 142 C 52 132, 72 128, 92 140 C 118 154, 142 132, 168 144 C 186 152, 198 140, 206 144"/></g>
  <g fill="#333"><circle cx="70" cy="90" r="1.6"/>
<circle cx="104" cy="118" r="1.6"/>
<circle cx="138" cy="98" r="1.6"/>
<circle cx="174" cy="126" r="1.6"/></g>
  </g>
  <polygon points="212.00,110.00 166.00,189.67 74.00,189.67 28.00,110.00 74.00,30.33 166.00,30.33" fill="none" stroke="#111" stroke-width="2"/>
  <text x="120" y="208" font-family="Segoe UI, Arial, sans-serif" font-size="13" text-anchor="middle" fill="#111">Calisham (Desert) v2</text>
  <defs>
    <clipPath id="clipHex">
      <polygon points="212.00,110.00 166.00,189.67 74.00,189.67 28.00,110.00 74.00,30.33 166.00,30.33"/>
    </clipPath>
  </defs>
</svg>
