<?xml version="1.0" encoding="UTF-8"?>
<svg xmlns="http://www.w3.org/2000/svg" width="240" height="220" viewBox="0 0 240 220">
  <rect x="0" y="0" width="240" height="220" fill="#fff"/>
  <polygon points="212.00,110.00 166.00,189.67 74.00,189.67 28.00,110.00 74.00,30.33 166.00,30.33" fill="#fff" stroke="#111" stroke-width="2"/>
  <g clip-path="url(#clipHex)">
    
  <rect x="30" y="45" width="180" height="130" fill="#fcfcfc"/>
  <g stroke="#444" stroke-width="1.2" fill="none"><path d="M 36 76 C 52 66, 72 62, 92 74 C 118 88, 142 66, 168 78 C 186 86, 198 74, 206 78"/>
<path d="M 36 100 C 52 90, 72 86, 92 98 C 118 112, 142 90, 168 102 C 186 110, 198 98, 206 102"/>
<path d="M 36 126 C 52 116, 72 112, 92 124 C 118 138, 142 116, 168 128 C 186 136, 198 124, 206 128"/>
<path d="M 36 150 C 52 140, 72 136, 92 148 C 118 162, 142 140, 168 152 C 186 160, 198 148, 206 152"/></g>
  <g fill="#333"><circle cx="82" cy="92" r="1.6"/>
<circle cx="116" cy="128" r="1.6"/>
<circle cx="148" cy="106" r="1.6"/>
<circle cx="176" cy="142" r="1.6"/></g>
  </g>
  <polygon points="212.00,110.00 166.00,189.67 74.00,189.67 28.00,110.00 74.00,30.33 166.00,30.33" fill="none" stroke="#111" stroke-width="2"/>
  <text x="120" y="208" font-family="Segoe UI, Arial, sans-serif" font-size="13" text-anchor="middle" fill="#111">Calisham (Desert) v3</text>
  <defs>
    <clipPath id="clipHex">
      <polygon points="212.00,110.00 166.00,189.67 74.00,189.67 28.00,110.00 74.00,30.33 166.00,30.33"/>
    </clipPath>
  </defs>
</svg>
