<?xml version="1.0" encoding="UTF-8"?>
<svg xmlns="http://www.w3.org/2000/svg" width="240" height="220" viewBox="0 0 240 220">
  <rect x="0" y="0" width="240" height="220" fill="#fff"/>
  <polygon points="212.00,110.00 166.00,189.67 74.00,189.67 28.00,110.00 74.00,30.33 166.00,30.33" fill="#fff" stroke="#111" stroke-width="2"/>
  <g clip-path="url(#clipHex)">
    
  <rect x="30" y="45" width="180" height="130" fill="#fcfcfc"/>
  <g stroke="#444" stroke-width="1.2" fill="none"><path d="M 36 72 C 52 62, 72 58, 92 70 C 118 84, 142 62, 168 74 C 186 82, 198 70, 206 74"/>
<path d="M 36 96 C 52 86, 72 82, 92 94 C 118 108, 142 86, 168 98 C 186 106, 198 94, 206 98"/>
<path d="M 36 122 C 52 112, 72 108, 92 120 C 118 134, 142 112, 168 124 C 186 132, 198 120, 206 124"/>
<path d="M 36 146 C 52 136, 72 132, 92 144 C 118 158, 142 136, 168 148 C 186 156, 198 144, 206 148"/></g>
  <g fill="#333"><circle cx="76" cy="84" r="1.6"/>
<circle cx="118" cy="110" r="1.6"/>
<circle cx="94" cy="136" r="1.6"/>
<circle cx="156" cy="100" r="1.6"/></g>
  </g>
  <polygon points="212.00,110.00 166.00,189.67 74.00,189.67 28.00,110.00 74.00,30.33 166.00,30.33" fill="none" stroke="#111" stroke-width="2"/>
  <text x="120" y="208" font-family="Segoe UI, Arial, sans-serif" font-size="13" text-anchor="middle" fill="#111">Calisham (Desert) v1</text>
  <defs>
    <clipPath id="clipHex">
      <polygon points="212.00,110.00 166.00,189.67 74.00,189.67 28.00,110.00 74.00,30.33 166.00,30.33"/>
    </clipPath>
  </defs>
</svg>
