<?xml version="1.0" encoding="UTF-8"?>
<svg xmlns="http://www.w3.org/2000/svg" width="240" height="220" viewBox="0 0 240 220">
  <rect x="0" y="0" width="240" height="220" fill="#fff"/>
  <polygon points="212.00,110.00 166.00,189.67 74.00,189.67 28.00,110.00 74.00,30.33 166.00,30.33" fill="#fff" stroke="#111" stroke-width="2"/>
  <g clip-path="url(#clipHex)">
    
  <rect x="34" y="44" width="172" height="130" fill="#fbfbfb"/>
  <g transform="translate(0,0)" stroke="#666" stroke-width="1">
    <path d="M 40 48 L 96 104"/>
    <path d="M 70 48 L 126 104"/>
    <path d="M 100 48 L 156 104"/>
    <path d="M 130 48 L 186 104"/>
  </g>
  <g stroke="#111" stroke-width="2" fill="#fff"><rect x="86" y="86" width="70" height="48"/><rect x="102" y="100" width="18" height="20"/><rect x="128" y="100" width="16" height="20"/><circle cx="121" cy="80" r="9" fill="#fff"/></g>
  <g stroke="#111" stroke-width="1.4" fill="none">
    <path d="M 92 136 L 154 136"/>
    <path d="M 92 142 L 154 142"/>
  </g>
  </g>
  <polygon points="212.00,110.00 166.00,189.67 74.00,189.67 28.00,110.00 74.00,30.33 166.00,30.33" fill="none" stroke="#111" stroke-width="2"/>
  <text x="120" y="208" font-family="Segoe UI, Arial, sans-serif" font-size="13" text-anchor="middle" fill="#111">Dungeon / Ruin / Tower v1</text>
  <defs>
    <clipPath id="clipHex">
      <polygon points="212.00,110.00 166.00,189.67 74.00,189.67 28.00,110.00 74.00,30.33 166.00,30.33"/>
    </clipPath>
  </defs>
</svg>
