<?xml version="1.0" encoding="UTF-8"?>
<svg xmlns="http://www.w3.org/2000/svg" width="240" height="220" viewBox="0 0 240 220">
  <rect x="0" y="0" width="240" height="220" fill="#fff"/>
  <polygon points="212.00,110.00 166.00,189.67 74.00,189.67 28.00,110.00 74.00,30.33 166.00,30.33" fill="#fff" stroke="#111" stroke-width="2"/>
  <g clip-path="url(#clipHex)">
    
  <rect x="30" y="45" width="180" height="130" fill="#f7f7f7"/>
  <g stroke="#111" stroke-width="1.4" fill="#fff"><polygon points="56,132 70,98 84,132"/>
<polygon points="82,142 96,110 110,142"/>
<polygon points="112,136 126,102 140,136"/>
<polygon points="142,136 156,102 170,136"/>
<polygon points="166,140 180,110 194,140"/>
<polygon points="66,100 80,68 94,100"/>
<polygon points="102,102 116,70 130,102"/>
<polygon points="138,104 152,74 166,104"/></g>
  <g stroke="#111" stroke-width="1.2"><line x1="70" y1="132" x2="70" y2="144"/>
<line x1="96" y1="142" x2="96" y2="154"/>
<line x1="126" y1="136" x2="126" y2="148"/>
<line x1="156" y1="136" x2="156" y2="148"/>
<line x1="180" y1="140" x2="180" y2="152"/></g>
  </g>
  <polygon points="212.00,110.00 166.00,189.67 74.00,189.67 28.00,110.00 74.00,30.33 166.00,30.33" fill="none" stroke="#111" stroke-width="2"/>
  <text x="120" y="208" font-family="Segoe UI, Arial, sans-serif" font-size="13" text-anchor="middle" fill="#111">Forest v2</text>
  <defs>
    <clipPath id="clipHex">
      <polygon points="212.00,110.00 166.00,189.67 74.00,189.67 28.00,110.00 74.00,30.33 166.00,30.33"/>
    </clipPath>
  </defs>
</svg>
