<?xml version="1.0" encoding="UTF-8"?>
<svg xmlns="http://www.w3.org/2000/svg" width="240" height="220" viewBox="0 0 240 220">
  <rect x="0" y="0" width="240" height="220" fill="#fff"/>
  <polygon points="212.00,110.00 166.00,189.67 74.00,189.67 28.00,110.00 74.00,30.33 166.00,30.33" fill="#fff" stroke="#111" stroke-width="2"/>
  <g clip-path="url(#clipHex)">
    
  <rect x="30" y="45" width="180" height="130" fill="#f7f7f7"/>
  <g stroke="#111" stroke-width="1.4" fill="#fff"><polygon points="60,134 74,104 88,134"/>
<polygon points="90,136 104,102 118,136"/>
<polygon points="118,140 132,106 146,140"/>
<polygon points="146,134 160,100 174,134"/>
<polygon points="174,138 188,106 202,138"/>
<polygon points="70,98 84,66 98,98"/>
<polygon points="108,96 122,64 136,96"/>
<polygon points="146,98 160,68 174,98"/></g>
  <g stroke="#111" stroke-width="1.2"><line x1="74" y1="134" x2="74" y2="146"/>
<line x1="104" y1="136" x2="104" y2="148"/>
<line x1="132" y1="140" x2="132" y2="152"/>
<line x1="160" y1="134" x2="160" y2="146"/>
<line x1="188" y1="138" x2="188" y2="150"/></g>
  </g>
  <polygon points="212.00,110.00 166.00,189.67 74.00,189.67 28.00,110.00 74.00,30.33 166.00,30.33" fill="none" stroke="#111" stroke-width="2"/>
  <text x="120" y="208" font-family="Segoe UI, Arial, sans-serif" font-size="13" text-anchor="middle" fill="#111">Forest v3</text>
  <defs>
    <clipPath id="clipHex">
      <polygon points="212.00,110.00 166.00,189.67 74.00,189.67 28.00,110.00 74.00,30.33 166.00,30.33"/>
    </clipPath>
  </defs>
</svg>
