<?xml version="1.0" encoding="UTF-8"?>
<svg xmlns="http://www.w3.org/2000/svg" width="240" height="220" viewBox="0 0 240 220">
  <rect x="0" y="0" width="240" height="220" fill="#fff"/>
  <polygon points="212.00,110.00 166.00,189.67 74.00,189.67 28.00,110.00 74.00,30.33 166.00,30.33" fill="#fff" stroke="#111" stroke-width="2"/>
  <g clip-path="url(#clipHex)">
    
  <rect x="30" y="45" width="180" height="130" fill="#f6f6f6"/>
  <g stroke="#555" stroke-width="1" fill="none"><path d="M 32 60 C 70 48, 120 50, 208 60"/>
<path d="M 32 79 C 70 67, 120 69, 208 79"/>
<path d="M 32 99 C 70 87, 120 89, 208 99"/>
<path d="M 32 117 C 70 105, 120 107, 208 117"/>
<path d="M 32 136 C 70 124, 120 126, 208 136"/></g>
  <g stroke="#222" stroke-width="1.2" fill="none"><rect x="62" y="70" width="28" height="22"/>
<rect x="112" y="86" width="26" height="20"/>
<rect x="152" y="66" width="30" height="26"/></g>
  </g>
  <polygon points="212.00,110.00 166.00,189.67 74.00,189.67 28.00,110.00 74.00,30.33 166.00,30.33" fill="none" stroke="#111" stroke-width="2"/>
  <text x="120" y="208" font-family="Segoe UI, Arial, sans-serif" font-size="13" text-anchor="middle" fill="#111">Heartlands (Farmland) v1</text>
  <defs>
    <clipPath id="clipHex">
      <polygon points="212.00,110.00 166.00,189.67 74.00,189.67 28.00,110.00 74.00,30.33 166.00,30.33"/>
    </clipPath>
  </defs>
</svg>
