<?xml version="1.0" encoding="UTF-8"?>
<svg xmlns="http://www.w3.org/2000/svg" width="240" height="220" viewBox="0 0 240 220">
  <rect x="0" y="0" width="240" height="220" fill="#fff"/>
  <polygon points="212.00,110.00 166.00,189.67 74.00,189.67 28.00,110.00 74.00,30.33 166.00,30.33" fill="#fff" stroke="#111" stroke-width="2"/>
  <g clip-path="url(#clipHex)">
    
  <rect x="30" y="45" width="180" height="130" fill="#f6f6f6"/>
  <g stroke="#555" stroke-width="1" fill="none"><path d="M 32 64 C 70 52, 120 54, 208 64"/>
<path d="M 32 84 C 70 72, 120 74, 208 84"/>
<path d="M 32 102 C 70 90, 120 92, 208 102"/>
<path d="M 32 120 C 70 108, 120 110, 208 120"/>
<path d="M 32 138 C 70 126, 120 128, 208 138"/></g>
  <g stroke="#222" stroke-width="1.2" fill="none"><rect x="58" y="88" width="30" height="24"/>
<rect x="102" y="68" width="24" height="18"/>
<rect x="136" y="88" width="24" height="22"/>
<rect x="166" y="70" width="20" height="18"/></g>
  </g>
  <polygon points="212.00,110.00 166.00,189.67 74.00,189.67 28.00,110.00 74.00,30.33 166.00,30.33" fill="none" stroke="#111" stroke-width="2"/>
  <text x="120" y="208" font-family="Segoe UI, Arial, sans-serif" font-size="13" text-anchor="middle" fill="#111">Heartlands (Farmland) v3</text>
  <defs>
    <clipPath id="clipHex">
      <polygon points="212.00,110.00 166.00,189.67 74.00,189.67 28.00,110.00 74.00,30.33 166.00,30.33"/>
    </clipPath>
  </defs>
</svg>
