<?xml version="1.0" encoding="UTF-8"?>
<svg xmlns="http://www.w3.org/2000/svg" width="240" height="220" viewBox="0 0 240 220">
  <rect x="0" y="0" width="240" height="220" fill="#fff"/>
  <polygon points="212.00,110.00 166.00,189.67 74.00,189.67 28.00,110.00 74.00,30.33 166.00,30.33" fill="#fff" stroke="#111" stroke-width="2"/>
  <g clip-path="url(#clipHex)">
    
  <rect x="30" y="45" width="180" height="130" fill="#f6f6f6"/>
  <g stroke="#555" stroke-width="1" fill="none"><path d="M 32 58 C 70 46, 120 48, 208 58"/>
<path d="M 32 74 C 70 62, 120 64, 208 74"/>
<path d="M 32 93 C 70 81, 120 83, 208 93"/>
<path d="M 32 114 C 70 102, 120 104, 208 114"/>
<path d="M 32 132 C 70 120, 120 122, 208 132"/>
<path d="M 32 149 C 70 137, 120 139, 208 149"/></g>
  <g stroke="#222" stroke-width="1.2" fill="none"><rect x="52" y="68" width="24" height="18"/>
<rect x="86" y="84" width="30" height="24"/>
<rect x="128" y="74" width="26" height="20"/>
<rect x="162" y="92" width="22" height="18"/></g>
  </g>
  <polygon points="212.00,110.00 166.00,189.67 74.00,189.67 28.00,110.00 74.00,30.33 166.00,30.33" fill="none" stroke="#111" stroke-width="2"/>
  <text x="120" y="208" font-family="Segoe UI, Arial, sans-serif" font-size="13" text-anchor="middle" fill="#111">Heartlands (Farmland) v2</text>
  <defs>
    <clipPath id="clipHex">
      <polygon points="212.00,110.00 166.00,189.67 74.00,189.67 28.00,110.00 74.00,30.33 166.00,30.33"/>
    </clipPath>
  </defs>
</svg>
