<?xml version="1.0" encoding="UTF-8"?>
<svg xmlns="http://www.w3.org/2000/svg" width="240" height="220" viewBox="0 0 240 220">
  <rect x="0" y="0" width="240" height="220" fill="#fff"/>
  <polygon points="212.00,110.00 166.00,189.67 74.00,189.67 28.00,110.00 74.00,30.33 166.00,30.33" fill="#fff" stroke="#111" stroke-width="2"/>
  <g clip-path="url(#clipHex)">
    
  <rect x="30" y="45" width="180" height="130" fill="#fafafa"/>
  <g stroke="#666" stroke-width="1.2" fill="none"><path d="M 44 74 L 84 96 L 112 82 L 146 104 L 188 90"/>
<path d="M 42 116 L 72 106 L 102 130 L 130 120 L 168 140"/>
<path d="M 56 152 L 94 136 L 126 156 L 154 146 L 184 162"/></g>
  <g stroke="#111" stroke-width="1"><line x1="82" y1="76" x2="82" y2="92"/><line x1="74" y1="84" x2="90" y2="84"/>
<line x1="140" y1="118" x2="140" y2="134"/><line x1="132" y1="126" x2="148" y2="126"/></g>
  </g>
  <polygon points="212.00,110.00 166.00,189.67 74.00,189.67 28.00,110.00 74.00,30.33 166.00,30.33" fill="none" stroke="#111" stroke-width="2"/>
  <text x="120" y="208" font-family="Segoe UI, Arial, sans-serif" font-size="13" text-anchor="middle" fill="#111">Ice v1</text>
  <defs>
    <clipPath id="clipHex">
      <polygon points="212.00,110.00 166.00,189.67 74.00,189.67 28.00,110.00 74.00,30.33 166.00,30.33"/>
    </clipPath>
  </defs>
</svg>
