<?xml version="1.0" encoding="UTF-8"?>
<svg xmlns="http://www.w3.org/2000/svg" width="240" height="220" viewBox="0 0 240 220">
  <rect x="0" y="0" width="240" height="220" fill="#fff"/>
  <polygon points="212.00,110.00 166.00,189.67 74.00,189.67 28.00,110.00 74.00,30.33 166.00,30.33" fill="#fff" stroke="#111" stroke-width="2"/>
  <g clip-path="url(#clipHex)">
    
  <rect x="30" y="45" width="180" height="130" fill="#fafafa"/>
  <g stroke="#666" stroke-width="1.2" fill="none"><path d="M 42 82 L 78 98 L 112 88 L 150 110 L 190 98"/>
<path d="M 38 120 L 70 108 L 100 126 L 136 116 L 170 136"/>
<path d="M 54 150 L 88 140 L 122 160 L 154 148 L 186 160"/></g>
  <g stroke="#111" stroke-width="1"><line x1="90" y1="84" x2="90" y2="100"/><line x1="82" y1="92" x2="98" y2="92"/>
<line x1="134" y1="116" x2="134" y2="132"/><line x1="126" y1="124" x2="142" y2="124"/></g>
  </g>
  <polygon points="212.00,110.00 166.00,189.67 74.00,189.67 28.00,110.00 74.00,30.33 166.00,30.33" fill="none" stroke="#111" stroke-width="2"/>
  <text x="120" y="208" font-family="Segoe UI, Arial, sans-serif" font-size="13" text-anchor="middle" fill="#111">Ice v3</text>
  <defs>
    <clipPath id="clipHex">
      <polygon points="212.00,110.00 166.00,189.67 74.00,189.67 28.00,110.00 74.00,30.33 166.00,30.33"/>
    </clipPath>
  </defs>
</svg>
