<?xml version="1.0" encoding="UTF-8"?>
<svg xmlns="http://www.w3.org/2000/svg" width="240" height="220" viewBox="0 0 240 220">
  <rect x="0" y="0" width="240" height="220" fill="#fff"/>
  <polygon points="212.00,110.00 166.00,189.67 74.00,189.67 28.00,110.00 74.00,30.33 166.00,30.33" fill="#fff" stroke="#111" stroke-width="2"/>
  <g clip-path="url(#clipHex)">
    
  <rect x="30" y="45" width="180" height="130" fill="#fafafa"/>
  <g stroke="#666" stroke-width="1.2" fill="none"><path d="M 40 78 L 70 92 L 106 76 L 138 94 L 180 86"/>
<path d="M 46 114 L 82 104 L 114 124 L 146 118 L 176 134"/>
<path d="M 62 148 L 96 132 L 130 150 L 160 142 L 188 154"/></g>
  <g stroke="#111" stroke-width="1"><line x1="74" y1="80" x2="74" y2="96"/><line x1="66" y1="88" x2="82" y2="88"/>
<line x1="146" y1="112" x2="146" y2="128"/><line x1="138" y1="120" x2="154" y2="120"/></g>
  </g>
  <polygon points="212.00,110.00 166.00,189.67 74.00,189.67 28.00,110.00 74.00,30.33 166.00,30.33" fill="none" stroke="#111" stroke-width="2"/>
  <text x="120" y="208" font-family="Segoe UI, Arial, sans-serif" font-size="13" text-anchor="middle" fill="#111">Ice v2</text>
  <defs>
    <clipPath id="clipHex">
      <polygon points="212.00,110.00 166.00,189.67 74.00,189.67 28.00,110.00 74.00,30.33 166.00,30.33"/>
    </clipPath>
  </defs>
</svg>
