<?xml version="1.0" encoding="UTF-8"?>
<svg xmlns="http://www.w3.org/2000/svg" width="240" height="220" viewBox="0 0 240 220">
  <rect x="0" y="0" width="240" height="220" fill="#fff"/>
  <polygon points="212.00,110.00 166.00,189.67 74.00,189.67 28.00,110.00 74.00,30.33 166.00,30.33" fill="#fff" stroke="#111" stroke-width="2"/>
  <g clip-path="url(#clipHex)">
    
  <rect x="30" y="45" width="180" height="130" fill="#f8f8f8"/>
  <g stroke="#111" stroke-width="1.6" fill="#fff">
    <polygon points="44,148 72,102 100,148"/>
<polygon points="78,148 112,82 146,148"/>
<polygon points="120,148 152,90 184,148"/>
<polygon points="156,148 182,106 208,148"/>
  </g>
  <g stroke="#555" stroke-width="1.2" fill="none">
    <path d="M 58 126 L 72 108"/>
<path d="M 94 124 L 110 94"/>
<path d="M 132 126 L 150 98"/>
<path d="M 170 126 L 182 112"/>
  </g>
  </g>
  <polygon points="212.00,110.00 166.00,189.67 74.00,189.67 28.00,110.00 74.00,30.33 166.00,30.33" fill="none" stroke="#111" stroke-width="2"/>
  <text x="120" y="208" font-family="Segoe UI, Arial, sans-serif" font-size="13" text-anchor="middle" fill="#111">Mountains (incl. Hills) v2</text>
  <defs>
    <clipPath id="clipHex">
      <polygon points="212.00,110.00 166.00,189.67 74.00,189.67 28.00,110.00 74.00,30.33 166.00,30.33"/>
    </clipPath>
  </defs>
</svg>
