<?xml version="1.0" encoding="UTF-8"?>
<svg xmlns="http://www.w3.org/2000/svg" width="240" height="220" viewBox="0 0 240 220">
  <rect x="0" y="0" width="240" height="220" fill="#fff"/>
  <polygon points="212.00,110.00 166.00,189.67 74.00,189.67 28.00,110.00 74.00,30.33 166.00,30.33" fill="#fff" stroke="#111" stroke-width="2"/>
  <g clip-path="url(#clipHex)">
    
  <rect x="30" y="45" width="180" height="130" fill="#f8f8f8"/>
  <g stroke="#111" stroke-width="1.6" fill="#fff">
    <polygon points="48,146 76,92 104,146"/>
<polygon points="86,146 122,76 158,146"/>
<polygon points="136,146 166,96 196,146"/>
  </g>
  <g stroke="#555" stroke-width="1.2" fill="none">
    <path d="M 61 122 L 75 102"/>
<path d="M 100 122 L 120 90"/>
<path d="M 146 122 L 164 102"/>
  </g>
  </g>
  <polygon points="212.00,110.00 166.00,189.67 74.00,189.67 28.00,110.00 74.00,30.33 166.00,30.33" fill="none" stroke="#111" stroke-width="2"/>
  <text x="120" y="208" font-family="Segoe UI, Arial, sans-serif" font-size="13" text-anchor="middle" fill="#111">Mountains (incl. Hills) v1</text>
  <defs>
    <clipPath id="clipHex">
      <polygon points="212.00,110.00 166.00,189.67 74.00,189.67 28.00,110.00 74.00,30.33 166.00,30.33"/>
    </clipPath>
  </defs>
</svg>
