<?xml version="1.0" encoding="UTF-8"?>
<svg xmlns="http://www.w3.org/2000/svg" width="240" height="220" viewBox="0 0 240 220">
  <rect x="0" y="0" width="240" height="220" fill="#fff"/>
  <polygon points="212.00,110.00 166.00,189.67 74.00,189.67 28.00,110.00 74.00,30.33 166.00,30.33" fill="#fff" stroke="#111" stroke-width="2"/>
  <g clip-path="url(#clipHex)">
    
  <rect x="30" y="45" width="180" height="130" fill="#fafafa"/>
  <g stroke="#111" stroke-width="1.4" fill="none"><path d="M 36 62 C 50 50, 64 50, 78 62 C 92 74, 106 74, 120 62 C 134 50, 148 50, 162 62 C 176 74, 190 74, 204 62"/>
<path d="M 36 88 C 50 76, 64 76, 78 88 C 92 100, 106 100, 120 88 C 134 76, 148 76, 162 88 C 176 100, 190 100, 204 88"/>
<path d="M 36 114 C 50 102, 64 102, 78 114 C 92 126, 106 126, 120 114 C 134 102, 148 102, 162 114 C 176 126, 190 126, 204 114"/>
<path d="M 36 140 C 50 128, 64 128, 78 140 C 92 152, 106 152, 120 140 C 134 128, 148 128, 162 140 C 176 152, 190 152, 204 140"/></g>
  </g>
  <polygon points="212.00,110.00 166.00,189.67 74.00,189.67 28.00,110.00 74.00,30.33 166.00,30.33" fill="none" stroke="#111" stroke-width="2"/>
  <text x="120" y="208" font-family="Segoe UI, Arial, sans-serif" font-size="13" text-anchor="middle" fill="#111">Water v3</text>
  <defs>
    <clipPath id="clipHex">
      <polygon points="212.00,110.00 166.00,189.67 74.00,189.67 28.00,110.00 74.00,30.33 166.00,30.33"/>
    </clipPath>
  </defs>
</svg>
