<?xml version="1.0" encoding="UTF-8"?>
<svg xmlns="http://www.w3.org/2000/svg" width="1536" height="984" viewBox="0 0 1536 984">
  <rect x="0" y="0" width="1536" height="984" fill="#fff"/>
  <text x="18" y="22" font-family="Segoe UI, Arial, sans-serif" font-size="18" fill="#111">Mapster 8-Type Hex Content Examples (3 Variants Each, Low-Ink B/W)</text>
  <g transform="translate(18,46)"><svg xmlns="http://www.w3.org/2000/svg" width="240" height="220" viewBox="0 0 240 220">
  <rect x="0" y="0" width="240" height="220" fill="#fff"/>
  <polygon points="212.00,110.00 166.00,189.67 74.00,189.67 28.00,110.00 74.00,30.33 166.00,30.33" fill="#fff" stroke="#111" stroke-width="2"/>
  <g clip-path="url(#clipHex)">
    
  <rect x="30" y="45" width="180" height="130" fill="#f6f6f6"/>
  <g stroke="#555" stroke-width="1" fill="none"><path d="M 32 60 C 70 48, 120 50, 208 60"/>
<path d="M 32 79 C 70 67, 120 69, 208 79"/>
<path d="M 32 99 C 70 87, 120 89, 208 99"/>
<path d="M 32 117 C 70 105, 120 107, 208 117"/>
<path d="M 32 136 C 70 124, 120 126, 208 136"/></g>
  <g stroke="#222" stroke-width="1.2" fill="none"><rect x="62" y="70" width="28" height="22"/>
<rect x="112" y="86" width="26" height="20"/>
<rect x="152" y="66" width="30" height="26"/></g>
  </g>
  <polygon points="212.00,110.00 166.00,189.67 74.00,189.67 28.00,110.00 74.00,30.33 166.00,30.33" fill="none" stroke="#111" stroke-width="2"/>
  <text x="120" y="208" font-family="Segoe UI, Arial, sans-serif" font-size="13" text-anchor="middle" fill="#111">Heartlands (Farmland) v1</text>
  <defs>
    <clipPath id="clipHex">
      <polygon points="212.00,110.00 166.00,189.67 74.00,189.67 28.00,110.00 74.00,30.33 166.00,30.33"/>
    </clipPath>
  </defs></g>
<g transform="translate(268,46)"><svg xmlns="http://www.w3.org/2000/svg" width="240" height="220" viewBox="0 0 240 220">
  <rect x="0" y="0" width="240" height="220" fill="#fff"/>
  <polygon points="212.00,110.00 166.00,189.67 74.00,189.67 28.00,110.00 74.00,30.33 166.00,30.33" fill="#fff" stroke="#111" stroke-width="2"/>
  <g clip-path="url(#clipHex)">
    
  <rect x="30" y="45" width="180" height="130" fill="#f6f6f6"/>
  <g stroke="#555" stroke-width="1" fill="none"><path d="M 32 58 C 70 46, 120 48, 208 58"/>
<path d="M 32 74 C 70 62, 120 64, 208 74"/>
<path d="M 32 93 C 70 81, 120 83, 208 93"/>
<path d="M 32 114 C 70 102, 120 104, 208 114"/>
<path d="M 32 132 C 70 120, 120 122, 208 132"/>
<path d="M 32 149 C 70 137, 120 139, 208 149"/></g>
  <g stroke="#222" stroke-width="1.2" fill="none"><rect x="52" y="68" width="24" height="18"/>
<rect x="86" y="84" width="30" height="24"/>
<rect x="128" y="74" width="26" height="20"/>
<rect x="162" y="92" width="22" height="18"/></g>
  </g>
  <polygon points="212.00,110.00 166.00,189.67 74.00,189.67 28.00,110.00 74.00,30.33 166.00,30.33" fill="none" stroke="#111" stroke-width="2"/>
  <text x="120" y="208" font-family="Segoe UI, Arial, sans-serif" font-size="13" text-anchor="middle" fill="#111">Heartlands (Farmland) v2</text>
  <defs>
    <clipPath id="clipHex">
      <polygon points="212.00,110.00 166.00,189.67 74.00,189.67 28.00,110.00 74.00,30.33 166.00,30.33"/>
    </clipPath>
  </defs></g>
<g transform="translate(518,46)"><svg xmlns="http://www.w3.org/2000/svg" width="240" height="220" viewBox="0 0 240 220">
  <rect x="0" y="0" width="240" height="220" fill="#fff"/>
  <polygon points="212.00,110.00 166.00,189.67 74.00,189.67 28.00,110.00 74.00,30.33 166.00,30.33" fill="#fff" stroke="#111" stroke-width="2"/>
  <g clip-path="url(#clipHex)">
    
  <rect x="30" y="45" width="180" height="130" fill="#f6f6f6"/>
  <g stroke="#555" stroke-width="1" fill="none"><path d="M 32 64 C 70 52, 120 54, 208 64"/>
<path d="M 32 84 C 70 72, 120 74, 208 84"/>
<path d="M 32 102 C 70 90, 120 92, 208 102"/>
<path d="M 32 120 C 70 108, 120 110, 208 120"/>
<path d="M 32 138 C 70 126, 120 128, 208 138"/></g>
  <g stroke="#222" stroke-width="1.2" fill="none"><rect x="58" y="88" width="30" height="24"/>
<rect x="102" y="68" width="24" height="18"/>
<rect x="136" y="88" width="24" height="22"/>
<rect x="166" y="70" width="20" height="18"/></g>
  </g>
  <polygon points="212.00,110.00 166.00,189.67 74.00,189.67 28.00,110.00 74.00,30.33 166.00,30.33" fill="none" stroke="#111" stroke-width="2"/>
  <text x="120" y="208" font-family="Segoe UI, Arial, sans-serif" font-size="13" text-anchor="middle" fill="#111">Heartlands (Farmland) v3</text>
  <defs>
    <clipPath id="clipHex">
      <polygon points="212.00,110.00 166.00,189.67 74.00,189.67 28.00,110.00 74.00,30.33 166.00,30.33"/>
    </clipPath>
  </defs></g>
<g transform="translate(768,46)"><svg xmlns="http://www.w3.org/2000/svg" width="240" height="220" viewBox="0 0 240 220">
  <rect x="0" y="0" width="240" height="220" fill="#fff"/>
  <polygon points="212.00,110.00 166.00,189.67 74.00,189.67 28.00,110.00 74.00,30.33 166.00,30.33" fill="#fff" stroke="#111" stroke-width="2"/>
  <g clip-path="url(#clipHex)">
    
  <rect x="36" y="46" width="168" height="126" fill="#f8f8f8"/>
  <g stroke="#111" stroke-width="1.6" fill="#fff"><rect x="55" y="62" width="20" height="20"/>
<rect x="86" y="58" width="26" height="26"/>
<rect x="122" y="64" width="20" height="18"/>
<rect x="154" y="56" width="30" height="28"/>
<rect x="60" y="96" width="24" height="20"/>
<rect x="96" y="94" width="18" height="22"/>
<rect x="124" y="94" width="36" height="20"/>
<rect x="72" y="126" width="24" height="22"/>
<rect x="108" y="124" width="20" height="22"/>
<rect x="142" y="122" width="30" height="24"/></g>
  <g stroke="#444" stroke-width="1.2" fill="none"><path d="M 40 90 L 200 90"/>
<path d="M 44 118 L 198 118"/></g>
  </g>
  <polygon points="212.00,110.00 166.00,189.67 74.00,189.67 28.00,110.00 74.00,30.33 166.00,30.33" fill="none" stroke="#111" stroke-width="2"/>
  <text x="120" y="208" font-family="Segoe UI, Arial, sans-serif" font-size="13" text-anchor="middle" fill="#111">City (Urban/Suburban) v1</text>
  <defs>
    <clipPath id="clipHex">
      <polygon points="212.00,110.00 166.00,189.67 74.00,189.67 28.00,110.00 74.00,30.33 166.00,30.33"/>
    </clipPath>
  </defs></g>
<g transform="translate(1018,46)"><svg xmlns="http://www.w3.org/2000/svg" width="240" height="220" viewBox="0 0 240 220">
  <rect x="0" y="0" width="240" height="220" fill="#fff"/>
  <polygon points="212.00,110.00 166.00,189.67 74.00,189.67 28.00,110.00 74.00,30.33 166.00,30.33" fill="#fff" stroke="#111" stroke-width="2"/>
  <g clip-path="url(#clipHex)">
    
  <rect x="36" y="46" width="168" height="126" fill="#f8f8f8"/>
  <g stroke="#111" stroke-width="1.6" fill="#fff"><rect x="52" y="60" width="24" height="24"/>
<rect x="84" y="64" width="20" height="18"/>
<rect x="112" y="58" width="22" height="22"/>
<rect x="142" y="62" width="22" height="20"/>
<rect x="170" y="58" width="20" height="24"/>
<rect x="58" y="94" width="20" height="18"/>
<rect x="84" y="90" width="32" height="22"/>
<rect x="124" y="94" width="20" height="18"/>
<rect x="150" y="92" width="34" height="20"/>
<rect x="70" y="122" width="22" height="20"/>
<rect x="98" y="120" width="24" height="24"/>
<rect x="130" y="126" width="22" height="18"/></g>
  <g stroke="#444" stroke-width="1.2" fill="none"><path d="M 42 84 L 198 84"/>
<path d="M 38 112 L 202 112"/>
<path d="M 52 140 L 188 140"/></g>
  </g>
  <polygon points="212.00,110.00 166.00,189.67 74.00,189.67 28.00,110.00 74.00,30.33 166.00,30.33" fill="none" stroke="#111" stroke-width="2"/>
  <text x="120" y="208" font-family="Segoe UI, Arial, sans-serif" font-size="13" text-anchor="middle" fill="#111">City (Urban/Suburban) v2</text>
  <defs>
    <clipPath id="clipHex">
      <polygon points="212.00,110.00 166.00,189.67 74.00,189.67 28.00,110.00 74.00,30.33 166.00,30.33"/>
    </clipPath>
  </defs></g>
<g transform="translate(1268,46)"><svg xmlns="http://www.w3.org/2000/svg" width="240" height="220" viewBox="0 0 240 220">
  <rect x="0" y="0" width="240" height="220" fill="#fff"/>
  <polygon points="212.00,110.00 166.00,189.67 74.00,189.67 28.00,110.00 74.00,30.33 166.00,30.33" fill="#fff" stroke="#111" stroke-width="2"/>
  <g clip-path="url(#clipHex)">
    
  <rect x="36" y="46" width="168" height="126" fill="#f8f8f8"/>
  <g stroke="#111" stroke-width="1.6" fill="#fff"><rect x="56" y="58" width="28" height="22"/>
<rect x="90" y="56" width="18" height="24"/>
<rect x="116" y="60" width="30" height="20"/>
<rect x="152" y="56" width="20" height="24"/>
<rect x="60" y="88" width="22" height="22"/>
<rect x="90" y="90" width="22" height="18"/>
<rect x="120" y="88" width="18" height="24"/>
<rect x="146" y="90" width="34" height="22"/>
<rect x="72" y="120" width="24" height="22"/>
<rect x="104" y="120" width="20" height="20"/>
<rect x="132" y="118" width="20" height="22"/>
<rect x="158" y="122" width="20" height="18"/></g>
  <g stroke="#444" stroke-width="1.2" fill="none"><path d="M 50 84 L 194 84"/>
<path d="M 44 110 L 200 110"/>
<path d="M 48 138 L 196 138"/></g>
  </g>
  <polygon points="212.00,110.00 166.00,189.67 74.00,189.67 28.00,110.00 74.00,30.33 166.00,30.33" fill="none" stroke="#111" stroke-width="2"/>
  <text x="120" y="208" font-family="Segoe UI, Arial, sans-serif" font-size="13" text-anchor="middle" fill="#111">City (Urban/Suburban) v3</text>
  <defs>
    <clipPath id="clipHex">
      <polygon points="212.00,110.00 166.00,189.67 74.00,189.67 28.00,110.00 74.00,30.33 166.00,30.33"/>
    </clipPath>
  </defs></g>
<g transform="translate(18,276)"><svg xmlns="http://www.w3.org/2000/svg" width="240" height="220" viewBox="0 0 240 220">
  <rect x="0" y="0" width="240" height="220" fill="#fff"/>
  <polygon points="212.00,110.00 166.00,189.67 74.00,189.67 28.00,110.00 74.00,30.33 166.00,30.33" fill="#fff" stroke="#111" stroke-width="2"/>
  <g clip-path="url(#clipHex)">
    
  <rect x="34" y="44" width="172" height="130" fill="#fbfbfb"/>
  <g transform="translate(0,0)" stroke="#666" stroke-width="1">
    <path d="M 40 48 L 96 104"/>
    <path d="M 70 48 L 126 104"/>
    <path d="M 100 48 L 156 104"/>
    <path d="M 130 48 L 186 104"/>
  </g>
  <g stroke="#111" stroke-width="2" fill="#fff"><rect x="86" y="86" width="70" height="48"/><rect x="102" y="100" width="18" height="20"/><rect x="128" y="100" width="16" height="20"/><circle cx="121" cy="80" r="9" fill="#fff"/></g>
  <g stroke="#111" stroke-width="1.4" fill="none">
    <path d="M 92 136 L 154 136"/>
    <path d="M 92 142 L 154 142"/>
  </g>
  </g>
  <polygon points="212.00,110.00 166.00,189.67 74.00,189.67 28.00,110.00 74.00,30.33 166.00,30.33" fill="none" stroke="#111" stroke-width="2"/>
  <text x="120" y="208" font-family="Segoe UI, Arial, sans-serif" font-size="13" text-anchor="middle" fill="#111">Dungeon / Ruin / Tower v1</text>
  <defs>
    <clipPath id="clipHex">
      <polygon points="212.00,110.00 166.00,189.67 74.00,189.67 28.00,110.00 74.00,30.33 166.00,30.33"/>
    </clipPath>
  </defs></g>
<g transform="translate(268,276)"><svg xmlns="http://www.w3.org/2000/svg" width="240" height="220" viewBox="0 0 240 220">
  <rect x="0" y="0" width="240" height="220" fill="#fff"/>
  <polygon points="212.00,110.00 166.00,189.67 74.00,189.67 28.00,110.00 74.00,30.33 166.00,30.33" fill="#fff" stroke="#111" stroke-width="2"/>
  <g clip-path="url(#clipHex)">
    
  <rect x="34" y="44" width="172" height="130" fill="#fbfbfb"/>
  <g transform="translate(-12,0)" stroke="#666" stroke-width="1">
    <path d="M 40 48 L 96 104"/>
    <path d="M 70 48 L 126 104"/>
    <path d="M 100 48 L 156 104"/>
    <path d="M 130 48 L 186 104"/>
  </g>
  <g stroke="#111" stroke-width="2" fill="#fff"><rect x="74" y="82" width="92" height="52"/><rect x="88" y="96" width="22" height="22"/><rect x="118" y="90" width="16" height="18"/><rect x="140" y="98" width="18" height="20"/><circle cx="122" cy="76" r="8" fill="#fff"/></g>
  <g stroke="#111" stroke-width="1.4" fill="none">
    <path d="M 92 136 L 154 136"/>
    <path d="M 92 142 L 154 142"/>
  </g>
  </g>
  <polygon points="212.00,110.00 166.00,189.67 74.00,189.67 28.00,110.00 74.00,30.33 166.00,30.33" fill="none" stroke="#111" stroke-width="2"/>
  <text x="120" y="208" font-family="Segoe UI, Arial, sans-serif" font-size="13" text-anchor="middle" fill="#111">Dungeon / Ruin / Tower v2</text>
  <defs>
    <clipPath id="clipHex">
      <polygon points="212.00,110.00 166.00,189.67 74.00,189.67 28.00,110.00 74.00,30.33 166.00,30.33"/>
    </clipPath>
  </defs></g>
<g transform="translate(518,276)"><svg xmlns="http://www.w3.org/2000/svg" width="240" height="220" viewBox="0 0 240 220">
  <rect x="0" y="0" width="240" height="220" fill="#fff"/>
  <polygon points="212.00,110.00 166.00,189.67 74.00,189.67 28.00,110.00 74.00,30.33 166.00,30.33" fill="#fff" stroke="#111" stroke-width="2"/>
  <g clip-path="url(#clipHex)">
    
  <rect x="34" y="44" width="172" height="130" fill="#fbfbfb"/>
  <g transform="translate(10,0)" stroke="#666" stroke-width="1">
    <path d="M 40 48 L 96 104"/>
    <path d="M 70 48 L 126 104"/>
    <path d="M 100 48 L 156 104"/>
    <path d="M 130 48 L 186 104"/>
  </g>
  <g stroke="#111" stroke-width="2" fill="#fff"><rect x="80" y="84" width="82" height="50"/><rect x="94" y="98" width="16" height="20"/><rect x="116" y="94" width="20" height="16"/><rect x="142" y="100" width="14" height="18"/><circle cx="120" cy="78" r="10" fill="#fff"/></g>
  <g stroke="#111" stroke-width="1.4" fill="none">
    <path d="M 92 136 L 154 136"/>
    <path d="M 92 142 L 154 142"/>
  </g>
  </g>
  <polygon points="212.00,110.00 166.00,189.67 74.00,189.67 28.00,110.00 74.00,30.33 166.00,30.33" fill="none" stroke="#111" stroke-width="2"/>
  <text x="120" y="208" font-family="Segoe UI, Arial, sans-serif" font-size="13" text-anchor="middle" fill="#111">Dungeon / Ruin / Tower v3</text>
  <defs>
    <clipPath id="clipHex">
      <polygon points="212.00,110.00 166.00,189.67 74.00,189.67 28.00,110.00 74.00,30.33 166.00,30.33"/>
    </clipPath>
  </defs></g>
<g transform="translate(768,276)"><svg xmlns="http://www.w3.org/2000/svg" width="240" height="220" viewBox="0 0 240 220">
  <rect x="0" y="0" width="240" height="220" fill="#fff"/>
  <polygon points="212.00,110.00 166.00,189.67 74.00,189.67 28.00,110.00 74.00,30.33 166.00,30.33" fill="#fff" stroke="#111" stroke-width="2"/>
  <g clip-path="url(#clipHex)">
    
  <rect x="30" y="45" width="180" height="130" fill="#f7f7f7"/>
  <g stroke="#111" stroke-width="1.4" fill="#fff"><polygon points="62,130 74,100 86,130"/>
<polygon points="84,138 98,104 112,138"/>
<polygon points="112,132 126,96 140,132"/>
<polygon points="138,140 154,100 170,140"/>
<polygon points="52,98 66,66 80,98"/>
<polygon points="84,96 100,62 116,96"/>
<polygon points="120,98 136,64 152,98"/>
<polygon points="152,102 166,72 180,102"/></g>
  <g stroke="#111" stroke-width="1.2"><line x1="74" y1="130" x2="74" y2="142"/>
<line x1="98" y1="138" x2="98" y2="150"/>
<line x1="126" y1="132" x2="126" y2="144"/>
<line x1="154" y1="140" x2="154" y2="152"/>
<line x1="66" y1="98" x2="66" y2="110"/></g>
  </g>
  <polygon points="212.00,110.00 166.00,189.67 74.00,189.67 28.00,110.00 74.00,30.33 166.00,30.33" fill="none" stroke="#111" stroke-width="2"/>
  <text x="120" y="208" font-family="Segoe UI, Arial, sans-serif" font-size="13" text-anchor="middle" fill="#111">Forest v1</text>
  <defs>
    <clipPath id="clipHex">
      <polygon points="212.00,110.00 166.00,189.67 74.00,189.67 28.00,110.00 74.00,30.33 166.00,30.33"/>
    </clipPath>
  </defs></g>
<g transform="translate(1018,276)"><svg xmlns="http://www.w3.org/2000/svg" width="240" height="220" viewBox="0 0 240 220">
  <rect x="0" y="0" width="240" height="220" fill="#fff"/>
  <polygon points="212.00,110.00 166.00,189.67 74.00,189.67 28.00,110.00 74.00,30.33 166.00,30.33" fill="#fff" stroke="#111" stroke-width="2"/>
  <g clip-path="url(#clipHex)">
    
  <rect x="30" y="45" width="180" height="130" fill="#f7f7f7"/>
  <g stroke="#111" stroke-width="1.4" fill="#fff"><polygon points="56,132 70,98 84,132"/>
<polygon points="82,142 96,110 110,142"/>
<polygon points="112,136 126,102 140,136"/>
<polygon points="142,136 156,102 170,136"/>
<polygon points="166,140 180,110 194,140"/>
<polygon points="66,100 80,68 94,100"/>
<polygon points="102,102 116,70 130,102"/>
<polygon points="138,104 152,74 166,104"/></g>
  <g stroke="#111" stroke-width="1.2"><line x1="70" y1="132" x2="70" y2="144"/>
<line x1="96" y1="142" x2="96" y2="154"/>
<line x1="126" y1="136" x2="126" y2="148"/>
<line x1="156" y1="136" x2="156" y2="148"/>
<line x1="180" y1="140" x2="180" y2="152"/></g>
  </g>
  <polygon points="212.00,110.00 166.00,189.67 74.00,189.67 28.00,110.00 74.00,30.33 166.00,30.33" fill="none" stroke="#111" stroke-width="2"/>
  <text x="120" y="208" font-family="Segoe UI, Arial, sans-serif" font-size="13" text-anchor="middle" fill="#111">Forest v2</text>
  <defs>
    <clipPath id="clipHex">
      <polygon points="212.00,110.00 166.00,189.67 74.00,189.67 28.00,110.00 74.00,30.33 166.00,30.33"/>
    </clipPath>
  </defs></g>
<g transform="translate(1268,276)"><svg xmlns="http://www.w3.org/2000/svg" width="240" height="220" viewBox="0 0 240 220">
  <rect x="0" y="0" width="240" height="220" fill="#fff"/>
  <polygon points="212.00,110.00 166.00,189.67 74.00,189.67 28.00,110.00 74.00,30.33 166.00,30.33" fill="#fff" stroke="#111" stroke-width="2"/>
  <g clip-path="url(#clipHex)">
    
  <rect x="30" y="45" width="180" height="130" fill="#f7f7f7"/>
  <g stroke="#111" stroke-width="1.4" fill="#fff"><polygon points="60,134 74,104 88,134"/>
<polygon points="90,136 104,102 118,136"/>
<polygon points="118,140 132,106 146,140"/>
<polygon points="146,134 160,100 174,134"/>
<polygon points="174,138 188,106 202,138"/>
<polygon points="70,98 84,66 98,98"/>
<polygon points="108,96 122,64 136,96"/>
<polygon points="146,98 160,68 174,98"/></g>
  <g stroke="#111" stroke-width="1.2"><line x1="74" y1="134" x2="74" y2="146"/>
<line x1="104" y1="136" x2="104" y2="148"/>
<line x1="132" y1="140" x2="132" y2="152"/>
<line x1="160" y1="134" x2="160" y2="146"/>
<line x1="188" y1="138" x2="188" y2="150"/></g>
  </g>
  <polygon points="212.00,110.00 166.00,189.67 74.00,189.67 28.00,110.00 74.00,30.33 166.00,30.33" fill="none" stroke="#111" stroke-width="2"/>
  <text x="120" y="208" font-family="Segoe UI, Arial, sans-serif" font-size="13" text-anchor="middle" fill="#111">Forest v3</text>
  <defs>
    <clipPath id="clipHex">
      <polygon points="212.00,110.00 166.00,189.67 74.00,189.67 28.00,110.00 74.00,30.33 166.00,30.33"/>
    </clipPath>
  </defs></g>
<g transform="translate(18,506)"><svg xmlns="http://www.w3.org/2000/svg" width="240" height="220" viewBox="0 0 240 220">
  <rect x="0" y="0" width="240" height="220" fill="#fff"/>
  <polygon points="212.00,110.00 166.00,189.67 74.00,189.67 28.00,110.00 74.00,30.33 166.00,30.33" fill="#fff" stroke="#111" stroke-width="2"/>
  <g clip-path="url(#clipHex)">
    
  <rect x="30" y="45" width="180" height="130" fill="#fcfcfc"/>
  <g stroke="#444" stroke-width="1.2" fill="none"><path d="M 36 72 C 52 62, 72 58, 92 70 C 118 84, 142 62, 168 74 C 186 82, 198 70, 206 74"/>
<path d="M 36 96 C 52 86, 72 82, 92 94 C 118 108, 142 86, 168 98 C 186 106, 198 94, 206 98"/>
<path d="M 36 122 C 52 112, 72 108, 92 120 C 118 134, 142 112, 168 124 C 186 132, 198 120, 206 124"/>
<path d="M 36 146 C 52 136, 72 132, 92 144 C 118 158, 142 136, 168 148 C 186 156, 198 144, 206 148"/></g>
  <g fill="#333"><circle cx="76" cy="84" r="1.6"/>
<circle cx="118" cy="110" r="1.6"/>
<circle cx="94" cy="136" r="1.6"/>
<circle cx="156" cy="100" r="1.6"/></g>
  </g>
  <polygon points="212.00,110.00 166.00,189.67 74.00,189.67 28.00,110.00 74.00,30.33 166.00,30.33" fill="none" stroke="#111" stroke-width="2"/>
  <text x="120" y="208" font-family="Segoe UI, Arial, sans-serif" font-size="13" text-anchor="middle" fill="#111">Calisham (Desert) v1</text>
  <defs>
    <clipPath id="clipHex">
      <polygon points="212.00,110.00 166.00,189.67 74.00,189.67 28.00,110.00 74.00,30.33 166.00,30.33"/>
    </clipPath>
  </defs></g>
<g transform="translate(268,506)"><svg xmlns="http://www.w3.org/2000/svg" width="240" height="220" viewBox="0 0 240 220">
  <rect x="0" y="0" width="240" height="220" fill="#fff"/>
  <polygon points="212.00,110.00 166.00,189.67 74.00,189.67 28.00,110.00 74.00,30.33 166.00,30.33" fill="#fff" stroke="#111" stroke-width="2"/>
  <g clip-path="url(#clipHex)">
    
  <rect x="30" y="45" width="180" height="130" fill="#fcfcfc"/>
  <g stroke="#444" stroke-width="1.2" fill="none"><path d="M 36 66 C 52 56, 72 52, 92 64 C 118 78, 142 56, 168 68 C 186 76, 198 64, 206 68"/>
<path d="M 36 90 C 52 80, 72 76, 92 88 C 118 102, 142 80, 168 92 C 186 100, 198 88, 206 92"/>
<path d="M 36 118 C 52 108, 72 104, 92 116 C 118 130, 142 108, 168 120 C 186 128, 198 116, 206 120"/>
<path d="M 36 142 C 52 132, 72 128, 92 140 C 118 154, 142 132, 168 144 C 186 152, 198 140, 206 144"/></g>
  <g fill="#333"><circle cx="70" cy="90" r="1.6"/>
<circle cx="104" cy="118" r="1.6"/>
<circle cx="138" cy="98" r="1.6"/>
<circle cx="174" cy="126" r="1.6"/></g>
  </g>
  <polygon points="212.00,110.00 166.00,189.67 74.00,189.67 28.00,110.00 74.00,30.33 166.00,30.33" fill="none" stroke="#111" stroke-width="2"/>
  <text x="120" y="208" font-family="Segoe UI, Arial, sans-serif" font-size="13" text-anchor="middle" fill="#111">Calisham (Desert) v2</text>
  <defs>
    <clipPath id="clipHex">
      <polygon points="212.00,110.00 166.00,189.67 74.00,189.67 28.00,110.00 74.00,30.33 166.00,30.33"/>
    </clipPath>
  </defs></g>
<g transform="translate(518,506)"><svg xmlns="http://www.w3.org/2000/svg" width="240" height="220" viewBox="0 0 240 220">
  <rect x="0" y="0" width="240" height="220" fill="#fff"/>
  <polygon points="212.00,110.00 166.00,189.67 74.00,189.67 28.00,110.00 74.00,30.33 166.00,30.33" fill="#fff" stroke="#111" stroke-width="2"/>
  <g clip-path="url(#clipHex)">
    
  <rect x="30" y="45" width="180" height="130" fill="#fcfcfc"/>
  <g stroke="#444" stroke-width="1.2" fill="none"><path d="M 36 76 C 52 66, 72 62, 92 74 C 118 88, 142 66, 168 78 C 186 86, 198 74, 206 78"/>
<path d="M 36 100 C 52 90, 72 86, 92 98 C 118 112, 142 90, 168 102 C 186 110, 198 98, 206 102"/>
<path d="M 36 126 C 52 116, 72 112, 92 124 C 118 138, 142 116, 168 128 C 186 136, 198 124, 206 128"/>
<path d="M 36 150 C 52 140, 72 136, 92 148 C 118 162, 142 140, 168 152 C 186 160, 198 148, 206 152"/></g>
  <g fill="#333"><circle cx="82" cy="92" r="1.6"/>
<circle cx="116" cy="128" r="1.6"/>
<circle cx="148" cy="106" r="1.6"/>
<circle cx="176" cy="142" r="1.6"/></g>
  </g>
  <polygon points="212.00,110.00 166.00,189.67 74.00,189.67 28.00,110.00 74.00,30.33 166.00,30.33" fill="none" stroke="#111" stroke-width="2"/>
  <text x="120" y="208" font-family="Segoe UI, Arial, sans-serif" font-size="13" text-anchor="middle" fill="#111">Calisham (Desert) v3</text>
  <defs>
    <clipPath id="clipHex">
      <polygon points="212.00,110.00 166.00,189.67 74.00,189.67 28.00,110.00 74.00,30.33 166.00,30.33"/>
    </clipPath>
  </defs></g>
<g transform="translate(768,506)"><svg xmlns="http://www.w3.org/2000/svg" width="240" height="220" viewBox="0 0 240 220">
  <rect x="0" y="0" width="240" height="220" fill="#fff"/>
  <polygon points="212.00,110.00 166.00,189.67 74.00,189.67 28.00,110.00 74.00,30.33 166.00,30.33" fill="#fff" stroke="#111" stroke-width="2"/>
  <g clip-path="url(#clipHex)">
    
  <rect x="30" y="45" width="180" height="130" fill="#fafafa"/>
  <g stroke="#666" stroke-width="1.2" fill="none"><path d="M 44 74 L 84 96 L 112 82 L 146 104 L 188 90"/>
<path d="M 42 116 L 72 106 L 102 130 L 130 120 L 168 140"/>
<path d="M 56 152 L 94 136 L 126 156 L 154 146 L 184 162"/></g>
  <g stroke="#111" stroke-width="1"><line x1="82" y1="76" x2="82" y2="92"/><line x1="74" y1="84" x2="90" y2="84"/>
<line x1="140" y1="118" x2="140" y2="134"/><line x1="132" y1="126" x2="148" y2="126"/></g>
  </g>
  <polygon points="212.00,110.00 166.00,189.67 74.00,189.67 28.00,110.00 74.00,30.33 166.00,30.33" fill="none" stroke="#111" stroke-width="2"/>
  <text x="120" y="208" font-family="Segoe UI, Arial, sans-serif" font-size="13" text-anchor="middle" fill="#111">Ice v1</text>
  <defs>
    <clipPath id="clipHex">
      <polygon points="212.00,110.00 166.00,189.67 74.00,189.67 28.00,110.00 74.00,30.33 166.00,30.33"/>
    </clipPath>
  </defs></g>
<g transform="translate(1018,506)"><svg xmlns="http://www.w3.org/2000/svg" width="240" height="220" viewBox="0 0 240 220">
  <rect x="0" y="0" width="240" height="220" fill="#fff"/>
  <polygon points="212.00,110.00 166.00,189.67 74.00,189.67 28.00,110.00 74.00,30.33 166.00,30.33" fill="#fff" stroke="#111" stroke-width="2"/>
  <g clip-path="url(#clipHex)">
    
  <rect x="30" y="45" width="180" height="130" fill="#fafafa"/>
  <g stroke="#666" stroke-width="1.2" fill="none"><path d="M 40 78 L 70 92 L 106 76 L 138 94 L 180 86"/>
<path d="M 46 114 L 82 104 L 114 124 L 146 118 L 176 134"/>
<path d="M 62 148 L 96 132 L 130 150 L 160 142 L 188 154"/></g>
  <g stroke="#111" stroke-width="1"><line x1="74" y1="80" x2="74" y2="96"/><line x1="66" y1="88" x2="82" y2="88"/>
<line x1="146" y1="112" x2="146" y2="128"/><line x1="138" y1="120" x2="154" y2="120"/></g>
  </g>
  <polygon points="212.00,110.00 166.00,189.67 74.00,189.67 28.00,110.00 74.00,30.33 166.00,30.33" fill="none" stroke="#111" stroke-width="2"/>
  <text x="120" y="208" font-family="Segoe UI, Arial, sans-serif" font-size="13" text-anchor="middle" fill="#111">Ice v2</text>
  <defs>
    <clipPath id="clipHex">
      <polygon points="212.00,110.00 166.00,189.67 74.00,189.67 28.00,110.00 74.00,30.33 166.00,30.33"/>
    </clipPath>
  </defs></g>
<g transform="translate(1268,506)"><svg xmlns="http://www.w3.org/2000/svg" width="240" height="220" viewBox="0 0 240 220">
  <rect x="0" y="0" width="240" height="220" fill="#fff"/>
  <polygon points="212.00,110.00 166.00,189.67 74.00,189.67 28.00,110.00 74.00,30.33 166.00,30.33" fill="#fff" stroke="#111" stroke-width="2"/>
  <g clip-path="url(#clipHex)">
    
  <rect x="30" y="45" width="180" height="130" fill="#fafafa"/>
  <g stroke="#666" stroke-width="1.2" fill="none"><path d="M 42 82 L 78 98 L 112 88 L 150 110 L 190 98"/>
<path d="M 38 120 L 70 108 L 100 126 L 136 116 L 170 136"/>
<path d="M 54 150 L 88 140 L 122 160 L 154 148 L 186 160"/></g>
  <g stroke="#111" stroke-width="1"><line x1="90" y1="84" x2="90" y2="100"/><line x1="82" y1="92" x2="98" y2="92"/>
<line x1="134" y1="116" x2="134" y2="132"/><line x1="126" y1="124" x2="142" y2="124"/></g>
  </g>
  <polygon points="212.00,110.00 166.00,189.67 74.00,189.67 28.00,110.00 74.00,30.33 166.00,30.33" fill="none" stroke="#111" stroke-width="2"/>
  <text x="120" y="208" font-family="Segoe UI, Arial, sans-serif" font-size="13" text-anchor="middle" fill="#111">Ice v3</text>
  <defs>
    <clipPath id="clipHex">
      <polygon points="212.00,110.00 166.00,189.67 74.00,189.67 28.00,110.00 74.00,30.33 166.00,30.33"/>
    </clipPath>
  </defs></g>
<g transform="translate(18,736)"><svg xmlns="http://www.w3.org/2000/svg" width="240" height="220" viewBox="0 0 240 220">
  <rect x="0" y="0" width="240" height="220" fill="#fff"/>
  <polygon points="212.00,110.00 166.00,189.67 74.00,189.67 28.00,110.00 74.00,30.33 166.00,30.33" fill="#fff" stroke="#111" stroke-width="2"/>
  <g clip-path="url(#clipHex)">
    
  <rect x="30" y="45" width="180" height="130" fill="#fafafa"/>
  <g stroke="#111" stroke-width="1.4" fill="none"><path d="M 36 72 C 50 60, 64 60, 78 72 C 92 84, 106 84, 120 72 C 134 60, 148 60, 162 72 C 176 84, 190 84, 204 72"/>
<path d="M 36 98 C 50 86, 64 86, 78 98 C 92 110, 106 110, 120 98 C 134 86, 148 86, 162 98 C 176 110, 190 110, 204 98"/>
<path d="M 36 124 C 50 112, 64 112, 78 124 C 92 136, 106 136, 120 124 C 134 112, 148 112, 162 124 C 176 136, 190 136, 204 124"/>
<path d="M 36 150 C 50 138, 64 138, 78 150 C 92 162, 106 162, 120 150 C 134 138, 148 138, 162 150 C 176 162, 190 162, 204 150"/></g>
  </g>
  <polygon points="212.00,110.00 166.00,189.67 74.00,189.67 28.00,110.00 74.00,30.33 166.00,30.33" fill="none" stroke="#111" stroke-width="2"/>
  <text x="120" y="208" font-family="Segoe UI, Arial, sans-serif" font-size="13" text-anchor="middle" fill="#111">Water v1</text>
  <defs>
    <clipPath id="clipHex">
      <polygon points="212.00,110.00 166.00,189.67 74.00,189.67 28.00,110.00 74.00,30.33 166.00,30.33"/>
    </clipPath>
  </defs></g>
<g transform="translate(268,736)"><svg xmlns="http://www.w3.org/2000/svg" width="240" height="220" viewBox="0 0 240 220">
  <rect x="0" y="0" width="240" height="220" fill="#fff"/>
  <polygon points="212.00,110.00 166.00,189.67 74.00,189.67 28.00,110.00 74.00,30.33 166.00,30.33" fill="#fff" stroke="#111" stroke-width="2"/>
  <g clip-path="url(#clipHex)">
    
  <rect x="30" y="45" width="180" height="130" fill="#fafafa"/>
  <g stroke="#111" stroke-width="1.4" fill="none"><path d="M 36 82 C 50 70, 64 70, 78 82 C 92 94, 106 94, 120 82 C 134 70, 148 70, 162 82 C 176 94, 190 94, 204 82"/>
<path d="M 36 108 C 50 96, 64 96, 78 108 C 92 120, 106 120, 120 108 C 134 96, 148 96, 162 108 C 176 120, 190 120, 204 108"/>
<path d="M 36 134 C 50 122, 64 122, 78 134 C 92 146, 106 146, 120 134 C 134 122, 148 122, 162 134 C 176 146, 190 146, 204 134"/>
<path d="M 36 160 C 50 148, 64 148, 78 160 C 92 172, 106 172, 120 160 C 134 148, 148 148, 162 160 C 176 172, 190 172, 204 160"/></g>
  </g>
  <polygon points="212.00,110.00 166.00,189.67 74.00,189.67 28.00,110.00 74.00,30.33 166.00,30.33" fill="none" stroke="#111" stroke-width="2"/>
  <text x="120" y="208" font-family="Segoe UI, Arial, sans-serif" font-size="13" text-anchor="middle" fill="#111">Water v2</text>
  <defs>
    <clipPath id="clipHex">
      <polygon points="212.00,110.00 166.00,189.67 74.00,189.67 28.00,110.00 74.00,30.33 166.00,30.33"/>
    </clipPath>
  </defs></g>
<g transform="translate(518,736)"><svg xmlns="http://www.w3.org/2000/svg" width="240" height="220" viewBox="0 0 240 220">
  <rect x="0" y="0" width="240" height="220" fill="#fff"/>
  <polygon points="212.00,110.00 166.00,189.67 74.00,189.67 28.00,110.00 74.00,30.33 166.00,30.33" fill="#fff" stroke="#111" stroke-width="2"/>
  <g clip-path="url(#clipHex)">
    
  <rect x="30" y="45" width="180" height="130" fill="#fafafa"/>
  <g stroke="#111" stroke-width="1.4" fill="none"><path d="M 36 62 C 50 50, 64 50, 78 62 C 92 74, 106 74, 120 62 C 134 50, 148 50, 162 62 C 176 74, 190 74, 204 62"/>
<path d="M 36 88 C 50 76, 64 76, 78 88 C 92 100, 106 100, 120 88 C 134 76, 148 76, 162 88 C 176 100, 190 100, 204 88"/>
<path d="M 36 114 C 50 102, 64 102, 78 114 C 92 126, 106 126, 120 114 C 134 102, 148 102, 162 114 C 176 126, 190 126, 204 114"/>
<path d="M 36 140 C 50 128, 64 128, 78 140 C 92 152, 106 152, 120 140 C 134 128, 148 128, 162 140 C 176 152, 190 152, 204 140"/></g>
  </g>
  <polygon points="212.00,110.00 166.00,189.67 74.00,189.67 28.00,110.00 74.00,30.33 166.00,30.33" fill="none" stroke="#111" stroke-width="2"/>
  <text x="120" y="208" font-family="Segoe UI, Arial, sans-serif" font-size="13" text-anchor="middle" fill="#111">Water v3</text>
  <defs>
    <clipPath id="clipHex">
      <polygon points="212.00,110.00 166.00,189.67 74.00,189.67 28.00,110.00 74.00,30.33 166.00,30.33"/>
    </clipPath>
  </defs></g>
<g transform="translate(768,736)"><svg xmlns="http://www.w3.org/2000/svg" width="240" height="220" viewBox="0 0 240 220">
  <rect x="0" y="0" width="240" height="220" fill="#fff"/>
  <polygon points="212.00,110.00 166.00,189.67 74.00,189.67 28.00,110.00 74.00,30.33 166.00,30.33" fill="#fff" stroke="#111" stroke-width="2"/>
  <g clip-path="url(#clipHex)">
    
  <rect x="30" y="45" width="180" height="130" fill="#f8f8f8"/>
  <g stroke="#111" stroke-width="1.6" fill="#fff">
    <polygon points="48,146 76,92 104,146"/>
<polygon points="86,146 122,76 158,146"/>
<polygon points="136,146 166,96 196,146"/>
  </g>
  <g stroke="#555" stroke-width="1.2" fill="none">
    <path d="M 61 122 L 75 102"/>
<path d="M 100 122 L 120 90"/>
<path d="M 146 122 L 164 102"/>
  </g>
  </g>
  <polygon points="212.00,110.00 166.00,189.67 74.00,189.67 28.00,110.00 74.00,30.33 166.00,30.33" fill="none" stroke="#111" stroke-width="2"/>
  <text x="120" y="208" font-family="Segoe UI, Arial, sans-serif" font-size="13" text-anchor="middle" fill="#111">Mountains (incl. Hills) v1</text>
  <defs>
    <clipPath id="clipHex">
      <polygon points="212.00,110.00 166.00,189.67 74.00,189.67 28.00,110.00 74.00,30.33 166.00,30.33"/>
    </clipPath>
  </defs></g>
<g transform="translate(1018,736)"><svg xmlns="http://www.w3.org/2000/svg" width="240" height="220" viewBox="0 0 240 220">
  <rect x="0" y="0" width="240" height="220" fill="#fff"/>
  <polygon points="212.00,110.00 166.00,189.67 74.00,189.67 28.00,110.00 74.00,30.33 166.00,30.33" fill="#fff" stroke="#111" stroke-width="2"/>
  <g clip-path="url(#clipHex)">
    
  <rect x="30" y="45" width="180" height="130" fill="#f8f8f8"/>
  <g stroke="#111" stroke-width="1.6" fill="#fff">
    <polygon points="44,148 72,102 100,148"/>
<polygon points="78,148 112,82 146,148"/>
<polygon points="120,148 152,90 184,148"/>
<polygon points="156,148 182,106 208,148"/>
  </g>
  <g stroke="#555" stroke-width="1.2" fill="none">
    <path d="M 58 126 L 72 108"/>
<path d="M 94 124 L 110 94"/>
<path d="M 132 126 L 150 98"/>
<path d="M 170 126 L 182 112"/>
  </g>
  </g>
  <polygon points="212.00,110.00 166.00,189.67 74.00,189.67 28.00,110.00 74.00,30.33 166.00,30.33" fill="none" stroke="#111" stroke-width="2"/>
  <text x="120" y="208" font-family="Segoe UI, Arial, sans-serif" font-size="13" text-anchor="middle" fill="#111">Mountains (incl. Hills) v2</text>
  <defs>
    <clipPath id="clipHex">
      <polygon points="212.00,110.00 166.00,189.67 74.00,189.67 28.00,110.00 74.00,30.33 166.00,30.33"/>
    </clipPath>
  </defs></g>
<g transform="translate(1268,736)"><svg xmlns="http://www.w3.org/2000/svg" width="240" height="220" viewBox="0 0 240 220">
  <rect x="0" y="0" width="240" height="220" fill="#fff"/>
  <polygon points="212.00,110.00 166.00,189.67 74.00,189.67 28.00,110.00 74.00,30.33 166.00,30.33" fill="#fff" stroke="#111" stroke-width="2"/>
  <g clip-path="url(#clipHex)">
    
  <rect x="30" y="45" width="180" height="130" fill="#f8f8f8"/>
  <g stroke="#111" stroke-width="1.6" fill="#fff">
    <polygon points="52,148 82,96 112,148"/>
<polygon points="94,148 126,78 158,148"/>
<polygon points="142,148 172,92 202,148"/>
  </g>
  <g stroke="#555" stroke-width="1.2" fill="none">
    <path d="M 66 124 L 80 106"/>
<path d="M 108 124 L 124 90"/>
<path d="M 154 124 L 170 100"/>
  </g>
  </g>
  <polygon points="212.00,110.00 166.00,189.67 74.00,189.67 28.00,110.00 74.00,30.33 166.00,30.33" fill="none" stroke="#111" stroke-width="2"/>
  <text x="120" y="208" font-family="Segoe UI, Arial, sans-serif" font-size="13" text-anchor="middle" fill="#111">Mountains (incl. Hills) v3</text>
  <defs>
    <clipPath id="clipHex">
      <polygon points="212.00,110.00 166.00,189.67 74.00,189.67 28.00,110.00 74.00,30.33 166.00,30.33"/>
    </clipPath>
  </defs></g>
</svg>
